<?xml version="1.0" encoding="UTF-8"?>
<svg id="Layer_1" data-name="Layer 1" xmlns="http://www.w3.org/2000/svg" viewBox="0 0 213.15 500.02">
  <g id="Layer_5" data-name="Layer 5">
    <path d="M213.15,93.38v-.94c0-12.54-11-23.54-23.54-23.54h-1.93v-9.48c.14-12.86-10.18-23.4-23.04-23.54-.17,0-.34,0-.5,0h-4.98C147.77,6.83,114.99-7.47,85.95,3.92c-14.63,5.74-26.22,17.32-31.96,31.96h-4.98c-12.54,0-23.54,11-23.54,23.54v9.48h-1.93C11,68.9,0,79.9,0,92.44v.94C0,103.33,6.92,112.3,16.04,115.59v269.65C6.38,388.38-.11,397.43,0,407.59c0,12.54,11,23.54,23.54,23.54h1.93v9.48c0,12.54,11,23.54,23.54,23.54h4.98c11.39,29.04,44.16,43.35,73.2,31.96,14.63-5.74,26.22-17.32,31.96-31.96h4.98c12.86.14,23.4-10.18,23.54-23.04,0-.17,0-.34,0-.5v-9.48h1.93c12.54,0,23.54-11,23.54-23.54.11-10.16-6.38-19.21-16.04-22.36V115.58c9.12-3.29,16.04-12.26,16.04-22.21ZM106.58,15.01c14.88,0,28.62,7.96,36.02,20.86h-72.04c7.41-12.9,21.15-20.86,36.02-20.86ZM40.48,59.41c0-4.31,4.23-8.54,8.54-8.54h115.12c4.67-.05,8.5,3.7,8.54,8.38,0,.05,0,.11,0,.16v9.48H40.48v-9.48ZM15,92.43c0-4.31,4.23-8.54,8.54-8.54h166.07c4.31,0,8.54,4.23,8.54,8.54v.94c0,4.31-4.23,8.54-8.54,8.54H23.54c-4.31,0-8.54-4.23-8.54-8.54v-.94ZM31.04,134.32l18.16-17.4h37.23l-55.39,54.75v-37.35ZM31.04,192.76l76.73-75.84h34.48L31.04,228.13v-35.38ZM31.04,307.86l151.07-150.21v34.53L31.04,343.25v-35.39ZM31.04,364.46l151.07-151.07v38.23L49.69,384.05h-18.64v-19.59ZM182.11,272.83v34.46l-76.76,76.76h-34.46l111.21-111.22ZM182.11,328.5v37.38l-17.4,18.16h-38.14l55.54-55.54ZM182.11,136.49L31.04,286.71v-37.36L163.47,116.92h18.64v19.57ZM106.58,485.01c-14.88,0-28.62-7.96-36.02-20.86h72.04c-7.41,12.9-21.15,20.86-36.02,20.86ZM172.68,440.61c.05,4.67-3.7,8.5-8.38,8.54-.05,0-.11,0-.16,0H49.02c-4.31,0-8.54-4.23-8.54-8.54v-9.48h132.2v9.48ZM189.61,416.13H23.54c-4.31,0-8.54-4.23-8.54-8.54-.05-4.67,3.7-8.49,8.37-8.54.06,0,.11,0,.17,0h166.07c4.67-.05,8.49,3.7,8.54,8.37,0,.06,0,.11,0,.17,0,4.31-4.23,8.54-8.54,8.54h0Z"/>
  </g>
</svg>