<?xml version="1.0" encoding="UTF-8"?><svg id="Layer_1" xmlns="http://www.w3.org/2000/svg" xmlns:xlink="http://www.w3.org/1999/xlink" viewBox="0 0 172.65 82.09"><defs><style>.cls-1{fill:url(#linear-gradient);}.cls-1,.cls-2,.cls-3,.cls-4,.cls-5,.cls-6,.cls-7,.cls-8,.cls-9{stroke-width:0px;}.cls-2{fill:url(#New_Gradient_Swatch_3-2);}.cls-3{fill:url(#New_Gradient_Swatch_2-2);}.cls-4{fill:url(#New_Gradient_Swatch_2);}.cls-5{fill:url(#linear-gradient-2);}.cls-6{fill:url(#New_Gradient_Swatch_1);}.cls-7{fill:url(#linear-gradient-3);}.cls-8{fill:url(#New_Gradient_Swatch_1-2);}.cls-9{fill:url(#New_Gradient_Swatch_3);}</style><linearGradient id="New_Gradient_Swatch_2" x1="24.9" y1="-1558.01" x2="74.04" y2="-1558.01" gradientTransform="translate(0 -1490.52) scale(1 -1)" gradientUnits="userSpaceOnUse"><stop offset="0" stop-color="#e61a50"/><stop offset=".62" stop-color="#b4115a"/></linearGradient><linearGradient id="New_Gradient_Swatch_2-2" x1="0" y1="48.38" x2="28.77" y2="48.38" gradientTransform="matrix(1,0,0,1,0,0)" xlink:href="#New_Gradient_Swatch_2"/><linearGradient id="linear-gradient" x1="37.33" y1="-1503.37" x2="46.84" y2="-1531.66" gradientTransform="translate(0 -1490.52) scale(1 -1)" gradientUnits="userSpaceOnUse"><stop offset="0" stop-color="#29a8df"/><stop offset="1" stop-color="#0071b9"/></linearGradient><linearGradient id="linear-gradient-2" x1="56.71" y1="25.75" x2="85.27" y2="25.75" gradientUnits="userSpaceOnUse"><stop offset="0" stop-color="#29a8df"/><stop offset=".47" stop-color="#0e83c6"/><stop offset="1" stop-color="#0071b9"/></linearGradient><linearGradient id="linear-gradient-3" x1="72.01" y1="42.58" x2="103.52" y2="42.58" gradientUnits="userSpaceOnUse"><stop offset=".31" stop-color="#0071b9"/><stop offset=".47" stop-color="#0e83c6"/><stop offset=".79" stop-color="#29a8df"/></linearGradient><linearGradient id="New_Gradient_Swatch_1" x1="121.93" y1="-1556.67" x2="177.86" y2="-1568.47" gradientTransform="translate(0 -1490.52) scale(1 -1)" gradientUnits="userSpaceOnUse"><stop offset="0" stop-color="#b8cc71"/><stop offset="1" stop-color="#6aa053"/></linearGradient><linearGradient id="New_Gradient_Swatch_1-2" x1="145.25" y1="44.05" x2="172.65" y2="44.05" gradientTransform="matrix(1,0,0,1,0,0)" xlink:href="#New_Gradient_Swatch_1"/><linearGradient id="New_Gradient_Swatch_3" x1="98.55" y1="-1505.06" x2="157.31" y2="-1505.06" gradientTransform="translate(0 -1490.52) scale(1 -1)" gradientUnits="userSpaceOnUse"><stop offset=".51" stop-color="#fbea27"/><stop offset="1" stop-color="#efe970"/></linearGradient><linearGradient id="New_Gradient_Swatch_3-2" x1="63.36" y1="41.87" x2="107.39" y2="41.87" gradientTransform="matrix(1,0,0,1,0,0)" xlink:href="#New_Gradient_Swatch_3"/></defs><g id="Layer_6"><path class="cls-4" d="m32.24,61.75c6.16,2.64,13.39,2.38,19.34-.7,4.87-2.52,5.48-4.34,9.3-8.15l9.98,3.17,3.18,9.94c-6.43,6.4-9.45,10.08-18.14,13.39-9.95,3.79-21.22,3.56-31.01-.62,3.02-1.97,8.21-6.97,8.21-6.97,0,0-1.05-6.69-.87-10.06h0Z"/><path class="cls-3" d="m21.31,30.26c-5.65,10.18-2.22,23.26,7.46,29.63-.77,3.29-.91,10.06-.91,10.06,0,0-5.99,4.01-9.31,5.43C.97,63.74-5.35,39.94,4.98,21.37c1.68,3.18,6.19,8.8,6.19,8.8,0,0,6.79-.42,10.14.09h0Z"/><path class="cls-1" d="m53.99,22.37c-9.63-6.54-23.06-4.41-30.32,4.62-3.22-1.08-9.97-1.85-9.97-1.85,0,0-3.45-6.32-4.55-9.74C22.35-1.02,46.89-4.89,64.42,7.02c-3.34,1.36-9.38,5.3-9.38,5.3,0,0-.22,6.77-1.05,10.05h0Z"/><path class="cls-5" d="m84.91,26.57c-5.05-5.05-10.12-10.08-15.26-15.04-3.52.77-6.95,1.97-10.16,3.6-.49,3.34-1.4,6.63-2.78,9.72l14.56,14.49.63.63,13.37-13.05c-.12-.12-.24-.24-.36-.36h0Z"/><path class="cls-7" d="m85.38,26.93l-13.37,13.05,18.35,18.27,3.18-9.94,9.98-3.17c-6.07-6.04-12.09-12.14-18.14-18.21h0Z"/><path class="cls-6" d="m149.9,77.92c-10.53,5.12-23.02,5.55-33.86,1.1-9.12-3.74-15.46-10.94-22.28-17.72l2.86-10.26,10.3-2.85c4.28,4.27,8.38,9.5,13.73,12.5,6.42,3.6,14.43,3.81,21.05.59.26,3.43-.8,10.23-.8,10.23,0,0,5.72,4.69,9,6.41h0Z"/><path class="cls-8" d="m162.92,14.32c15.08,17.73,12.41,45.4-6.42,59.48-3.54-1.07-10.06-4.58-10.06-4.58,0,0-.27-6.88-1.18-10.19,10.35-7.74,11.84-22.85,3.55-32.63,3.27-1.1,10.14-1.8,10.14-1.8,0,0,3.12-6.69,3.97-10.28h0Z"/><path class="cls-9" d="m98.55,15.98c3.64-3.62,7.16-7.24,11.58-9.94,5.31-3.24,11.33-5.25,17.53-5.85,10.55-1.03,21.36,2.1,29.65,8.7-.15,3.68-1.96,10.83-1.96,10.83,0,0-6.63,1.97-9.63,3.67-4.68-3.73-10.82-5.42-16.76-4.71-7.39.89-12.2,5.36-17.26,10.39l-2.86-10.26-10.3-2.85h0Z"/><polygon class="cls-2" points="63.36 50.41 94.23 20.22 104.53 23.07 107.39 33.33 76.52 63.52 73.66 53.26 63.36 50.41"/></g></svg>