	<svg id="Layer_1" class="h-96 m-auto mt-40" data-name="Layer 1" xmlns="http://www.w3.org/2000/svg" viewBox="0 0 790.2 781.58">
		<defs>
		  <style>
			.cls-1, .cls-2, .cls-3, .cls-4, .cls-5, .cls-6, .cls-7 {
			  fill: none;
			  stroke: #fff;
			  stroke-miterlimit: 6;
			}
	  
			.cls-2 {
			  stroke-width: 8px;
			}
	  
			.cls-3 {
			  stroke-width: 2px;
			}
	  
			.cls-4 {
			  stroke-width: 6px;
			}
	  
			.cls-5 {
			  stroke-width: 4px;
			}
	  
			.cls-6 {
			  stroke-width: 3px;
			}
	  
			.cls-7 {
			  stroke-width: 5px;
			}
		  </style>
		</defs>
		<path class="cls-2" d="M586.21,25.43c89.97,49.64,151.53,87.05,95.39,157.86-3.91,7.46,50.19,40.06,47.34,47.91-.66,1.8-34.95,124.54-34.58,126.43"/>
		<path class="cls-2" d="M61.79,581.02c-90.16-55.35-17.55-300.16,50.68-393.81.59-.81.97-1.75,1.61-2.53,9.06-11.04,31.93-47.18,40.44-55.82,22.97-23.35,57.72-56.43,88.44-68.35,20.27-7.86,37.14-26.57,58.39-31.18,15.76-3.42,40.83-17.52,56.69-20.41,6.91-1.26,33.24-3.82,40.25-4.54,9.15-.93,29.87.21,39.12,0,147.78-3.31,120.46,15.4,154.03,22.44"/>
		<path class="cls-2" d="M681.61,183.29c-104.56,63.13-269.07,0-454.88,63.13"/>
		<path class="cls-2" d="M400.79,584.45c-2.46,5.86-19.09,22.24-32.63,10.76-2.07-1.76-8.39-9.72-10.88-10.81-3.59-1.56-12.61,1.56-20.98,5.67-2.19,1.08-23.47,10.85-26.65,11.34-4.14.64-32.15,23.46-74.59,32.22l2.21-10.72c-8.81,15.19-43.45-.88-91.81-13.89-59.19-15.93-115.25-17.97-123.61-108.17"/>
		<path class="cls-4" d="M734.48,618.24c-10.65,12.66-5.29,40.99,20.79,75.29-.3,3.05,6.55,21.3,8.22,23.81,3.07,4.61-3.25,7.99,0,12.47,1.92,2.64-.89,6.53-1.13,9.64-.54,7-4.81,14.6-7.35,21.22-1.44,3.76-3.53,7.16-6.46,9.87-1.87,1.73-4.22,3.07-6.55,4.16-6.7,3.13-13.7,4.24-21.2,3.79-16.08-.96-31.34-5.46-46.47-10.26-22.83-7.24-45.79-14.09-68.24-22.52-25.68-9.64-52.17-16.44-79.21-21.18-9.61-1.69-19.11-4.03-28.66-6.1-1.44-.31-2.73-.72-4.22.24-.83.53-2.23.5-3.29.3-6.25-1.2-12.58-2.26-18.23-5.36-2.55-1.4-5-3.14-7.13-5.12-6.91-6.44-38.68-5.75-42.69-14.13-6.85-14.3-27.91-150.07-32.13-165.35"/>
		<path class="cls-4" d="M694.36,357.62c-14.74,14.17,46.59,6.35,57.37,27.04,1.35,1.73-32.6,62.93-27.78,103.46-1.7,9.07,19.36,39.54,30.61,38.27"/>
		<path class="cls-7" d="M480.92,317.38c28.02-22.11,60.1-58.05,9.95-76.54-30.12-15.88-171.44-4.39-245.84,6.8-5.49.83-188.23,51.69-210.63,120.74"/>
		<path class="cls-5" d="M378.91,306.61c52.71-25.36,79.01-50.38,17.5-73.88"/>
		<path class="cls-5" d="M328.91,298.67c28.73-25.44,50-31.99.98-62.6"/>
		<path class="cls-5" d="M288.14,293c25.63-22.89,16.7-29.75-4.26-52.64"/>
		<path class="cls-6" d="M226.72,287.36c11.01-10.81,27.95-12.47,0-32.62"/>
		<path class="cls-6" d="M258.78,285.45c10.39-11.34,25.1-18.08-7.58-39.04"/>
		<path class="cls-3" d="M192.72,287.36c12.09-10.02,24.65-13.49,8.66-23.44"/>
		<g class="stroke-white fill-white">
		  <path d="M551.97,587.61l3.24-13.78c.31-1.34,1.55-2.4,3.18-2.93l.77-3.28c-4.07.45-7.45,2.67-8.16,5.69l-3.24,13.78c-.71,3.02,1.46,5.93,5.09,7.34l.77-3.28c-1.29-.89-1.97-2.19-1.66-3.53Z"/>
		  <path d="M566.36,575.21l-3.24,13.78c-.31,1.34-1.55,2.4-3.18,2.93l-.77,3.28c4.07-.45,7.45-2.67,8.16-5.69l3.24-13.78c.71-3.02-1.46-5.93-5.09-7.34l-.77,3.28c1.29.89,1.97,2.19,1.66,3.53Z"/>
		  <path d="M543.52,611.54c-.41.77.14,1.65,1.24,1.96s2.32-.07,2.74-.84l12.44-23.25c.41-.77-.14-1.65-1.24-1.96s-2.32.07-2.74.84l-12.44,23.25Z"/>
		  <path d="M557.97,573.79c-.34.79.29,1.64,1.42,1.9s2.31-.18,2.65-.97l10.25-23.81c.34-.79-.29-1.64-1.42-1.9s-2.31.18-2.65.97l-10.25,23.81Z"/>
		  <path d="M565.37,547.34l3.24-13.78c.31-1.34,1.55-2.4,3.18-2.93l.77-3.28c-4.07.45-7.45,2.67-8.16,5.69l-3.24,13.78c-.71,3.02,1.46,5.93,5.09,7.34l.77-3.28c-1.29-.89-1.97-2.19-1.66-3.53Z"/>
		  <path d="M579.76,534.94l-3.24,13.78c-.31,1.34-1.55,2.4-3.18,2.93l-.77,3.28c4.07-.45,7.45-2.67,8.16-5.69l3.24-13.78c.71-3.02-1.46-5.93-5.09-7.34l-.77,3.28c1.29.89,1.97,2.19,1.66,3.53Z"/>
		  <path d="M534.08,622.45l6.92-13.05c.67-1.27,2.17-2.13,3.91-2.42l1.65-3.11c-4.11-.14-8.03,1.56-9.54,4.41l-6.92,13.05c-1.51,2.86-.18,6.03,3,7.92l1.65-3.11c-1.03-1.06-1.34-2.43-.67-3.7Z"/>
		  <path d="M551.55,612.35l-6.92,13.05c-.67,1.27-2.17,2.13-3.91,2.42l-1.65,3.11c4.11.14,8.03-1.56,9.54-4.41l6.92-13.05c1.51-2.86.18-6.03-3-7.92l-1.65,3.11c1.03,1.06,1.34,2.43.67,3.7Z"/>
		  <path d="M584.79,471.08l3.24-13.78c.31-1.34,1.55-2.4,3.18-2.93l.77-3.28c-4.07.45-7.45,2.67-8.16,5.69l-3.24,13.78c-.71,3.02,1.46,5.93,5.09,7.34l.77-3.28c-1.29-.89-1.97-2.19-1.66-3.53Z"/>
		  <path d="M599.18,458.68l-3.24,13.78c-.31,1.34-1.55,2.4-3.18,2.93l-.77,3.28c4.07-.45,7.45-2.67,8.16-5.69l3.24-13.78c.71-3.02-1.46-5.93-5.09-7.34l-.77,3.28c1.29.89,1.97,2.19,1.66,3.53Z"/>
		  <path d="M591.47,457.85c-.19.82.59,1.6,1.75,1.74s2.26-.4,2.45-1.22l5.78-24.59c.19-.82-.59-1.6-1.76-1.74s-2.26.4-2.45,1.22l-5.78,24.59Z"/>
		  <path d="M582.5,495.98c-.19.82.59,1.6,1.75,1.74s2.26-.4,2.45-1.22l5.78-24.59c.19-.82-.59-1.6-1.76-1.74s-2.26.4-2.45,1.22l-5.78,24.59Z"/>
		  <path d="M575.82,509.21l3.24-13.78c.31-1.34,1.55-2.4,3.18-2.93l.77-3.28c-4.07.45-7.45,2.67-8.16,5.69l-3.24,13.78c-.71,3.02,1.46,5.93,5.09,7.34l.77-3.28c-1.29-.89-1.97-2.19-1.66-3.53Z"/>
		  <path d="M590.2,496.81l-3.24,13.78c-.31,1.34-1.55,2.4-3.18,2.93l-.77,3.28c4.07-.45,7.45-2.67,8.16-5.69l3.24-13.78c.71-3.02-1.46-5.93-5.09-7.34l-.77,3.28c1.29.89,1.97,2.19,1.66,3.53Z"/>
		  <path d="M592.94,432.9l-1.16-13.96c-.11-1.36.76-2.6,2.18-3.38l-.28-3.33c-3.82,1.11-6.41,3.83-6.16,6.89l1.16,13.96c.25,3.06,3.28,5.54,7.26,6.3l-.28-3.33c-1.54-.65-2.61-1.81-2.72-3.16Z"/>
		  <path d="M580.29,509.37c-1.16-.14-2.26.4-2.45,1.22l-2.89,12.29-2.89,12.29c-.19.82.59,1.6,1.75,1.74s2.26-.4,2.45-1.22l2.89-12.29,2.89-12.29c.19-.82-.59-1.6-1.76-1.74Z"/>
		  <path d="M593.06,417.57c-.19.82.59,1.6,1.75,1.74s2.26-.4,2.45-1.22l2.89-12.29-4.21-.52-2.89,12.29Z"/>
		  <path d="M523.17,646.89c-.46.76.05,1.65,1.12,2s2.33,0,2.78-.75l13.78-22.85c.46-.76-.05-1.65-1.12-2s-2.33,0-2.78.75l-13.78,22.85Z"/>
		  <path d="M602.44,419.33l1.75,13.93c.17,1.35-.65,2.61-2.03,3.42l.42,3.32c3.77-1.19,6.25-3.97,5.87-7.02l-1.75-13.93c-.38-3.05-3.51-5.46-7.52-6.14l.42,3.32c1.56.62,2.68,1.75,2.85,3.1Z"/>
		  <path d="M348.34,746.44l19.21-.95c1.87-.09,3.58.53,4.67,1.55l4.58-.23c-1.56-2.76-5.33-4.63-9.54-4.42l-19.21.95c-4.21.21-7.6,2.43-8.62,5.32l4.58-.23c.89-1.12,2.47-1.91,4.33-2Z"/>
		  <path d="M368.32,753.68l-19.21.95c-1.87.09-3.58-.53-4.67-1.55l-4.58.23c1.56,2.76,5.33,4.63,9.54,4.42l19.21-.95c4.21-.21,7.6-2.43,8.62-5.32l-4.58.23c-.89,1.12-2.47,1.91-4.33,2Z"/>
		  <path d="M369.93,748.05c-1.13.12-1.91.9-1.74,1.75s1.22,1.44,2.35,1.32l33.99-3.56c1.13-.12,1.91-.9,1.74-1.75s-1.22-1.44-2.35-1.32l-33.99,3.56Z"/>
		  <path d="M402.67,740.64l18.03-4.91c1.75-.48,3.64-.24,5.09.52l4.3-1.17c-2.58-2.32-6.93-3.32-10.88-2.25l-18.03,4.91c-3.95,1.08-6.32,3.91-6.16,6.89l4.3-1.17c.41-1.26,1.61-2.34,3.36-2.82Z"/>
		  <path d="M424.67,743.42l-18.03,4.91c-1.75.48-3.64.24-5.09-.52l-4.3,1.17c2.58,2.32,6.93,3.32,10.88,2.25l18.03-4.91c3.95-1.08,6.32-3.91,6.16-6.89l-4.3,1.17c-.41,1.26-1.61,2.34-3.36,2.82Z"/>
		  <path d="M482.5,691.92l8.66-12.49c.84-1.21,2.45-1.97,4.22-2.13l2.06-2.98c-4.07-.44-8.2.97-10.09,3.71l-8.66,12.49c-1.9,2.73-1,5.98,1.91,8.1l2.06-2.98c-.88-1.12-1-2.51-.16-3.73Z"/>
		  <path d="M501.26,683.12l-8.66,12.49c-.84,1.21-2.45,1.97-4.22,2.13l-2.06,2.98c4.07.44,8.2-.97,10.09-3.71l8.66-12.49c1.9-2.73,1-5.98-1.91-8.1l-2.06,2.98c.88,1.12,1,2.51.16,3.73Z"/>
		  <path d="M494.65,679.05c-.71.65-.55,1.61.37,2.14s2.24.44,2.96-.2l21.47-19.47c.71-.65.55-1.61-.37-2.14s-2.24-.44-2.96.2l-21.47,19.47Z"/>
		  <path d="M466.46,715.82c-.63.69-.34,1.64.64,2.11s2.29.29,2.92-.4l18.91-20.82c.63-.69.34-1.64-.64-2.11s-2.29-.29-2.92.4l-18.91,20.82Z"/>
		  <path d="M447.49,721.81l15.45-8.35c1.5-.81,3.41-.96,5.08-.53l3.68-1.99c-3.37-1.71-7.93-1.8-11.31.03l-15.45,8.35c-3.38,1.83-4.58,5.02-3.29,7.86l3.68-1.99c-.09-1.29.66-2.57,2.16-3.38Z"/>
		  <path d="M469.69,720.05l-15.45,8.35c-1.5.81-3.41.96-5.08.53l-3.68,1.99c3.37,1.71,7.93,1.8,11.31-.03l15.45-8.35c3.38-1.83,4.58-5.02,3.29-7.86l-3.68,1.99c.09,1.29-.66,2.57-2.16,3.38Z"/>
		  <path d="M512.58,657.75l8.3-12.62c.81-1.23,2.4-2,4.16-2.19l1.98-3.01c-4.08-.38-8.17,1.1-9.99,3.86l-8.3,12.62c-1.82,2.76-.83,6,2.14,8.07l1.98-3.01c-.91-1.11-1.07-2.5-.27-3.72Z"/>
		  <path d="M450.87,724.82c-.71-.68-2.02-.83-2.94-.33l-13.72,7.5-13.72,7.5c-.91.5-1.08,1.46-.37,2.14s2.02.83,2.94.33l13.72-7.5,13.72-7.5c.91-.5,1.08-1.46.37-2.14Z"/>
		  <path d="M529.96,649.21l-7.77,12.8c-.75,1.24-2.31,2.06-4.06,2.28l-1.85,3.05c4.09.28,8.12-1.28,9.82-4.08l7.77-12.8c1.7-2.8.57-6.01-2.48-8.02l-1.85,3.05c.96,1.09,1.18,2.47.42,3.72Z"/>
		</g>
		<path class="cls-4" d="M786.41,556.87c1.08,3.89-.63,59.69-48.43,62.76-6.11,1.04-7.24.33-11.68-5.81-2.19-.06-4.52-.05-6.87-.19-1.59-.09-3.62.17-4.75-.69-4.75-3.61-10.07-4.92-15.17-7.17-4.52-1.99-4.79-5.9-4.78-9.73-5.13-.35-9.36-.54-13.63-.95-4.43-.43-9.1.16-12.72-4.92-.51-.71-2-1.16-3.01-1.33-5.29-.9-10.18-2.34-13.89-7.49-.77-1.06-3.02-1.51-4.61-1.96-3.45-.97-6.21-2.48-7.91-6.03-.61-1.28-2.29-2.72-3.68-3.32-12.58-5.44-21.97-14.93-31.06-24.71-5.69-6.13-5.99-8.35-3.36-14.61-6.88-14.43-6.89-14.53-1.46-18.38-.38-1.81-.89-3.83-1.2-5.84-1.05-6.9.27-7.79,6.56-5.51,2.01-6.28,3.82-12.53,6.04-18.56.79-2.14,2.23-3.78,5.93-2.65,1.97.6,4.31-.54,6.19-1.35,5.96-2.56,12.52-2.97,19.77-1.42,17.35,3.71,28.59,23.8,17.64,34.58-1.72-1.7-3.44-3.36-5.13-5.06-4.27-4.3-8.28-5.47-11.59-3.36-3.29,2.1-3.42,6.04-.35,10.78,4.87,7.51,14.73,12.8,23.97,11.96,5.82-.53,11.17-2.48,16.76-3.72,9.73-2.16,19.18-5.1,29.28-6.21,24.49-2.69,59.58,14.93,74.28,42.97M635.58,502.27c5.93.13,10.82.23,16.75.36-7.7-4.68-9.9-4.69-16.75-.36Z"/>
		<ellipse class="cls-4" cx="632.08" cy="355.62" rx="42.47" ry="90.22" transform="translate(-38.75 79.97) rotate(-7.02)"/>
		<ellipse class="cls-4" cx="641.49" cy="354.46" rx="32.98" ry="90.22" transform="translate(-38.53 81.11) rotate(-7.02)"/>
		<g class="stroke-white fill-white">
		  <path d="M187.35,717.39l14.01,2.02c1.36.2,2.53,1.34,3.2,2.91l3.34.48c-.8-4.01-3.32-7.18-6.39-7.63l-14.01-2.02c-3.07-.44-5.78,1.98-6.86,5.72l3.34.48c.77-1.37,2.01-2.16,3.37-1.96Z"/>
		  <path d="M200.97,730.63l-14.01-2.02c-1.36-.2-2.53-1.34-3.2-2.91l-3.34-.48c.8,4.01,3.32,7.18,6.39,7.63l14.01,2.02c3.07.44,5.78-1.98,6.86-5.72l-3.34-.48c-.77,1.37-2.01,2.16-3.37,1.96Z"/>
		  <path d="M162.77,711.07c-.81-.34-1.63.29-1.84,1.41s.27,2.31,1.08,2.65l24.25,10.35c.81.34,1.63-.29,1.84-1.41s-.27-2.31-1.08-2.65l-24.25-10.35Z"/>
		  <path d="M201.65,722.15c-.82-.27-1.61.44-1.76,1.58s.38,2.29,1.2,2.56l24.61,8.12c.82.27,1.61-.44,1.76-1.58s-.38-2.29-1.2-2.56l-24.61-8.12Z"/>
		  <path d="M228.64,727.2l14.01,2.02c1.36.2,2.53,1.34,3.2,2.91l3.34.48c-.8-4.01-3.32-7.18-6.39-7.63l-14.01-2.02c-3.07-.44-5.78,1.98-6.86,5.72l3.34.48c.77-1.37,2.01-2.16,3.37-1.96Z"/>
		  <path d="M242.26,740.45l-14.01-2.02c-1.36-.2-2.53-1.34-3.2-2.91l-3.34-.48c.8,4.01,3.32,7.18,6.39,7.63l14.01,2.02c3.07.44,5.78-1.98,6.86-5.72l-3.34-.48c-.77,1.37-2.01,2.16-3.37,1.96Z"/>
		  <path d="M151.08,702.62l13.61,5.75c1.32.56,2.32,1.98,2.75,3.68l3.24,1.37c-.22-4.11-2.26-7.86-5.23-9.12l-13.61-5.75c-2.98-1.26-6.02.35-7.63,3.69l3.24,1.37c.96-1.11,2.3-1.55,3.63-.99Z"/>
		  <path d="M162.67,719.14l-13.61-5.75c-1.32-.56-2.32-1.98-2.75-3.68l-3.24-1.37c.22,4.11,2.26,7.86,5.23,9.12l13.61,5.75c2.98,1.26,6.02-.35,7.63-3.69l-3.24-1.37c-.96,1.11-2.3,1.55-3.63.99Z"/>
		  <path d="M306.31,739.86l14.01,2.02c1.36.2,2.53,1.34,3.2,2.91l3.34.48c-.8-4.01-3.32-7.18-6.39-7.63l-14.01-2.02c-3.07-.44-5.78,1.98-6.86,5.72l3.34.48c.77-1.37,2.01-2.16,3.37-1.96Z"/>
		  <path d="M319.93,753.1l-14.01-2.02c-1.36-.2-2.53-1.34-3.2-2.91l-3.34-.48c.8,4.01,3.32,7.18,6.39,7.63l14.01,2.02c3.07.44,5.78-1.98,6.86-5.72l-3.34-.48c-.77,1.37-2.01,2.16-3.37,1.96Z"/>
		  <path d="M320.08,745.36c-.83-.12-1.54.73-1.58,1.9s.6,2.22,1.43,2.34l25,3.61c.83.12,1.54-.73,1.58-1.9s-.6-2.22-1.43-2.34l-25-3.61Z"/>
		  <path d="M281.31,739.76c-.83-.12-1.54.73-1.58,1.9s.6,2.22,1.43,2.34l25,3.61c.83.12,1.54-.73,1.58-1.9s-.6-2.22-1.43-2.34l-25-3.61Z"/>
		  <path d="M267.54,734.27l14.01,2.02c1.36.2,2.53,1.34,3.2,2.91l3.34.48c-.8-4.01-3.32-7.18-6.39-7.63l-14.01-2.02c-3.07-.44-5.78,1.98-6.86,5.72l3.34.48c.77-1.37,2.01-2.16,3.37-1.96Z"/>
		  <path d="M281.16,747.51l-14.01-2.02c-1.36-.2-2.53-1.34-3.2-2.91l-3.34-.48c.8,4.01,3.32,7.18,6.39,7.63l14.01,2.02c3.07.44,5.78-1.98,6.86-5.72l-3.34-.48c-.77,1.37-2.01,2.16-3.37,1.96Z"/>
		  <path d="M267.77,738.74c.04-1.17-.6-2.22-1.43-2.34l-12.5-1.8-12.5-1.8c-.83-.12-1.54.73-1.58,1.9s.6,2.22,1.43,2.34l12.5,1.8,12.5,1.8c.83.12,1.54-.73,1.58-1.9Z"/>
		  <path d="M125.78,693.9c-.8-.39-1.64.19-1.89,1.3s.2,2.32,1,2.71l23.97,11.72c.8.39,1.64-.19,1.89-1.3s-.2-2.32-1-2.71l-23.97-11.72Z"/>
		  <path d="M11.27,528.48l2.64,19.05c.26,1.85-.21,3.61-1.14,4.79l.63,4.54c2.62-1.79,4.14-5.72,3.56-9.89l-2.64-19.05c-.58-4.17-3.08-7.35-6.06-8.12l.63,4.54c1.19.78,2.12,2.29,2.37,4.14Z"/>
		  <path d="M5.81,549.02l-2.64-19.05c-.26-1.85.21-3.61,1.14-4.79l-.63-4.54c-2.62,1.79-4.14,5.72-3.56,9.89l2.64,19.05c.58,4.17,3.08,7.35,6.06,8.12l-.63-4.54c-1.19-.78-2.12-2.29-2.37-4.14Z"/>
		  <path d="M11.56,550.12c-.22-1.12-1.07-1.82-1.89-1.58s-1.33,1.34-1.11,2.46l6.53,33.55c.22,1.12,1.07,1.82,1.89,1.58s1.33-1.34,1.11-2.46l-6.53-33.55Z"/>
		  <path d="M21.81,582.09l6.47,17.53c.63,1.7.56,3.61-.07,5.11l1.54,4.18c2.09-2.78,2.7-7.2,1.28-11.04l-6.47-17.53c-1.42-3.84-4.45-5.95-7.4-5.53l1.54,4.18c1.29.29,2.47,1.4,3.1,3.1Z"/>
		  <path d="M20.98,604.25l-6.47-17.53c-.63-1.7-.56-3.61.07-5.11l-1.54-4.18c-2.09,2.78-2.7,7.2-1.28,11.04l6.47,17.53c1.42,3.84,4.45,5.95,7.4,5.53l-1.54-4.18c-1.29-.29-2.47-1.4-3.1-3.1Z"/>
		  <path d="M77.35,657.34l13.2,7.53c1.28.73,2.18,2.27,2.49,4.02l3.15,1.79c.08-4.09-1.69-8.08-4.58-9.73l-13.2-7.53c-2.89-1.65-6.05-.47-7.9,2.61l3.15,1.79c1.04-.97,2.42-1.22,3.7-.49Z"/>
		  <path d="M87.76,675.25l-13.2-7.53c-1.28-.73-2.18-2.27-2.49-4.02l-3.15-1.79c-.08,4.09,1.69,8.08,4.58,9.73l13.2,7.53c2.89,1.65,6.05.47,7.9-2.61l-3.15-1.79c-1.04.97-2.42,1.22-3.7.49Z"/>
		  <path d="M91.24,668.31c-.71-.65-1.65-.4-2.1.56s-.25,2.27.46,2.93l21.28,19.68c.71.65,1.65.4,2.1-.56s.25-2.27-.46-2.93l-21.28-19.68Z"/>
		  <path d="M52.13,643.46c-.74-.57-1.66-.2-2.04.83s-.09,2.31.66,2.87l22.4,17.01c.74.57,1.66.2,2.04-.83s.09-2.31-.66-2.87l-22.4-17.01Z"/>
		  <path d="M44.5,625.08l9.67,14.66c.94,1.42,1.26,3.31.97,5.02l2.3,3.49c1.41-3.51,1.1-8.06-1.02-11.27l-9.67-14.66c-2.12-3.21-5.41-4.13-8.12-2.59l2.3,3.49c1.28-.2,2.62.43,3.56,1.85Z"/>
		  <path d="M48.2,647.04l-9.67-14.66c-.94-1.42-1.26-3.31-.97-5.02l-2.3-3.49c-1.41,3.51-1.1,8.06,1.02,11.27l9.67,14.66c2.12,3.21,5.41,4.13,8.12,2.59l-2.3-3.49c-1.28.2-2.62-.43-3.56-1.85Z"/>
		  <path d="M114.03,684.31l13.3,7.16c1.29.7,2.21,2.21,2.55,3.95l3.17,1.71c.02-4.1-1.81-8.04-4.72-9.61l-13.3-7.16c-2.91-1.57-6.05-.3-7.85,2.84l3.17,1.71c1.03-1,2.4-1.29,3.69-.59Z"/>
		  <path d="M41.8,628.72c.62-.77.65-2.09.08-2.95l-8.68-13.01-8.68-13.01c-.58-.86-1.55-.95-2.17-.18s-.65,2.09-.08,2.95l8.68,13.01,8.68,13.01c.58.86,1.55.95,2.17.18Z"/>
		  <path d="M124.05,700.86l-13.43-6.61c-1.3-.64-2.25-2.12-2.63-3.85l-3.2-1.58c.08,4.1,1.98,7.98,4.92,9.42l13.43,6.61c2.94,1.45,6.04.04,7.77-3.17l-3.2-1.58c-1,1.05-2.36,1.39-3.67.75Z"/>
		</g >
		<path class="cls-4" d="M571.48,208.78c44.4,5.33,109.49-79.42,62.33-151.58"/>
		<path class="cls-4" d="M498.45,213c44.4,5.33,107.23-116.79,37.61-203.13"/>
		<path class="cls-4" d="M396.4,217.93c44.4,5.33,104.01-123.64,34.39-209.98"/>
		<path class="cls-4" d="M313.01,224.96c50.36-63.16,75.12-115.04,5.49-201.38"/>
		<path class="cls-4" d="M221.93,254.73c58.77-90.46,32.08-140.83-14.27-173.62"/>
		<path class="cls-6" d="M112.07,298.67c15.21-43.94,7.97-77.28-28.73-58.31"/>
		<path class="cls-7" d="M188.15,263.92c.04-30.22,25.8-93.04-49.91-106.3"/>
		<path class="cls-6" d="M660.21,505.36c-74.53-77.89-44.37,105.4,38.35,13.29"/>
		<path class="cls-6" d="M604.76,500.98c2.12,47.18,38.15,100.32,118.48,17.14"/>
		<path class="cls-6" d="M642.32,577.37c52.79,23.1,102.43-18.65,119.19-44.46"/>
		<path class="cls-6" d="M655.77,586.48c52.79,23.1,102.43-18.65,119.19-44.46"/>
		<path class="cls-6" d="M696.31,600.48c46.81,8.23,67.5-30.3,87.59-47.8"/>
		<path class="cls-6" d="M714.68,612.93c44.66-1.12,55.72-32.69,72.86-48.09"/>
		<path class="cls-6" d="M633.8,570.79c49.43,15.86,91.12-24.91,110.13-45.87"/>
		<path class="cls-5" d="M453.38,311.47c28.35-16.39,48.82-52.33,26.89-74.1"/>
		<path class="cls-5" d="M354.42,299.91c28.73-25.44,62.82-21.55,5.23-63.84"/>
		<path class="cls-5" d="M309.66,293c25.63-22.89,26.81-29.75,5.85-52.64"/>
		<path class="cls-5" d="M419.36,306.61c52.71-25.36,61.23-39.93,12.78-73.88"/>
		<path class="cls-6" d="M274.24,231.44c10.39-11.34,65.2-98.32,18.32-106.83"/>
		<path class="cls-5" d="M372.7,213.16c10.39-11.34,69.04-83.67,33.6-110.04"/>
		<path class="cls-5" d="M471.44,214.28c10.39-11.34,76.19-89.67,42.32-111.15"/>
		<path class="cls-5" d="M566.8,208.78c10.39-11.34,77.16-101.4,37.96-122.66"/>
		<path class="cls-3" d="M143.2,284.85c10.39-11.34,31.32-89.03-4.95-79.67"/>
		<path class="cls-3" d="M81.14,316.15c12.03-15.27,19.92-41.72.63-40.51"/>
		<path class="cls-1" d="M288.09,470.15c80.07,46.66,153.64-10.54,183.34,91.55"/>
		<path class="cls-3" d="M207.66,287.36c12.09-10.02,22.55-18.08,6.56-28.03"/>
		<path class="cls-1" d="M553.4,254.73c59.13,60.69-117.89,92.46-36.24,144.33"/>
		<path class="cls-1" d="M326.64,395.66c68.34,114.78,242.67,51.85,190.52,3.4"/>
	  </svg>